<svg width="568" height="568" viewBox="0 0 568 568" fill="none" xmlns="http://www.w3.org/2000/svg">
<g clip-path="url(#clip0_2185_20009)">
<path d="M213.1 159.95C213.1 189.3 236.9 213.1 266.25 213.1C276.04 213.1 283.97 221.03 283.97 230.81V283.96H230.82C221.03 283.96 213.1 291.89 213.1 301.68C213.1 331.03 189.31 354.83 159.95 354.83C130.59 354.83 106.8 331.03 106.8 301.68C106.8 291.89 98.87 283.96 89.09 283.96H0.5V71.36C0.5 32.22 32.23 0.5 71.37 0.5H283.97V89.08C283.97 98.86 276.04 106.8 266.25 106.8C236.9 106.8 213.1 130.59 213.1 159.95Z" stroke="black" stroke-linecap="round" stroke-linejoin="round"/>
<path d="M159.95 354.71C189.3 354.71 213.1 330.91 213.1 301.56C213.1 291.77 221.03 283.84 230.81 283.84H283.96V336.99C283.96 346.78 291.89 354.71 301.68 354.71C331.03 354.71 354.83 378.5 354.83 407.86C354.83 437.22 331.03 461.01 301.68 461.01C291.89 461.01 283.96 468.94 283.96 478.72V567.31H71.36C32.22 567.31 0.5 535.58 0.5 496.44V283.84H89.08C98.86 283.84 106.8 291.77 106.8 301.56C106.8 330.91 130.59 354.71 159.95 354.71V354.71Z" stroke="black" stroke-linecap="round" stroke-linejoin="round"/>
<path d="M354.84 407.86C354.84 378.51 331.04 354.71 301.69 354.71C291.9 354.71 283.97 346.78 283.97 337V283.85H337.12C346.91 283.85 354.84 275.92 354.84 266.13C354.84 236.78 378.63 212.98 407.99 212.98C437.35 212.98 461.14 236.78 461.14 266.13C461.14 275.92 469.07 283.85 478.85 283.85H567.44V496.45C567.44 535.59 535.71 567.31 496.57 567.31H283.97V478.73C283.97 468.95 291.9 461.01 301.69 461.01C331.04 461.01 354.84 437.22 354.84 407.86V407.86Z" stroke="black" stroke-linecap="round" stroke-linejoin="round"/>
<path d="M407.99 213.1C378.64 213.1 354.84 236.9 354.84 266.25C354.84 276.04 346.91 283.97 337.13 283.97H283.98V230.82C283.98 221.03 276.05 213.1 266.26 213.1C236.91 213.1 213.11 189.31 213.11 159.95C213.11 130.59 236.91 106.8 266.26 106.8C276.05 106.8 283.98 98.87 283.98 89.09V0.5H496.58C535.72 0.5 567.44 32.23 567.44 71.37V283.97H478.86C469.08 283.97 461.14 276.04 461.14 266.25C461.14 236.9 437.35 213.1 407.99 213.1V213.1Z" stroke="black" stroke-linecap="round" stroke-linejoin="round"/>
</g>
<defs>
<clipPath id="clip0_2185_20009">
<rect width="567.94" height="567.81" fill="white"/>
</clipPath>
</defs>
</svg>
